<svg width="100%" height="100%" viewBox="0 -3 18 18" fill="currentColor" xmlns="http://www.w3.org/2000/svg">
<path d="M1.97,7.88l-.38-.09c-.22-.07-.4-.23-.5-.44l-.04-.1L.05,4.06c-.13-.35-.02-.74.28-.96.36-.26,1.58-1.15,2.35-1.55C5.95-.14,9.68-.46,13.18.65c1.66.53,3.18,1.35,4.52,2.45.28.23.38.61.26.94l-1.12,3.57-.42.17c-.18.06-.38.06-.55,0l-3.75-1.11c-.33-.17-.51-.54-.43-.91l.17-.81c-1.87-.6-3.85-.6-5.7,0l.17.79c.08.36-.1.74-.43.92l-.15.06-3.78,1.15ZM13.28,5.46l2.44.71.68-2.19c-1.11-.84-2.34-1.48-3.68-1.91-3.12-.99-6.44-.71-9.34.79-.44.23-1.16.71-1.76,1.15l.67,2.15,2.44-.71-.31-1.45.58-.24c2.56-1.03,5.4-1.03,7.99,0l.59.23-.31,1.45Z"/>
<path d="M15.63,12H2.38c-.41,0-.75-.34-.75-.75s.34-.75.75-.75h13.25c.41,0,.75.34.75.75s-.34.75-.75.75Z"/>
</svg>
