<svg width="100%" height="100%" viewBox="0 -3 18 18" fill="none" stroke="currentColor" stroke-width="1.5" stroke-miterlimit="10" xmlns="http://www.w3.org/2000/svg">
<path d="M15.48,11.72H2.52c-.41,0-.73-.33-.73-.73s.33-.73.73-.73h12.96c.41,0,.73.33.73.73s-.33.73-.73.73Z" fill="currentColor" stroke="none"/>
<path d="M2.26,7.3c-.17.07-.36.05-.49-.07-.32-.29-.58-.64-.77-1.03-.33-.68-.34-1.44-.01-2.13.63-1.33,2.21-2.17,3.55-2.63,2.09-.71,4.51-.85,6.68-.53.76.11,1.51.29,2.24.53,1.35.46,2.95,1.31,3.57,2.66.31.67.3,1.41-.02,2.07-.18.38-.42.7-.72,1-.14.14-.34.22-.53.13l-3.06-1.35c-.2-.09-.32-.33-.32-.54v-1.17c0-.14-.05-.28-.13-.39-.09-.14-.23-.21-.39-.25-1.88-.36-3.81-.36-5.69,0-.16.03-.29.08-.38.22s-.14.27-.14.43v1.17c0,.2-.12.44-.31.53l-3.06,1.35Z"/>
</svg>
