<svg xmlns="http://www.w3.org/2000/svg" width="100%" height="100%" viewBox="0 0 18 18" fill="currentColor" stroke="none">
  <defs>
    <mask id="new-split-notch-mask" maskUnits="userSpaceOnUse">
      <rect x="0" y="0" width="18" height="18" fill="white"/>
      <rect x="0" y="1.5" width="3" height="1.5" fill="black"/>
      <rect x="15" y="15" width="3" height="1.5" fill="black"/>
    </mask>
  </defs>
  <g mask="url(#new-split-notch-mask)">
    <polygon points="7.5 8.25 5.25 8.25 5.25 6 3.75 6 3.75 8.25 1.5 8.25 1.5 9.75 3.75 9.75 3.75 12 5.25 12 5.25 9.75 7.5 9.75 7.5 8.25"/>
    <path d="M16.5,16.5h-6.65c-.47,0-.85-.38-.85-.85V1.5h6.65c.47,0,.85.38.85.85v14.15ZM10.5,15h4.5V3h-4.5v12Z"/>
  </g>
</svg>
