<svg width="100%" height="100%" viewBox="0 0 18 12" fill="currentColor" xmlns="http://www.w3.org/2000/svg">
<path d="M8.96 0L2.96 6L8.96 12L14.96 6L8.96 0ZM8.22 2.35C8.22 2.3 8.25 2.27 8.3 2.27H9.62C9.67 2.27 9.7 2.3 9.7 2.35V7.24C9.7 7.29 9.67 7.32 9.62 7.32H8.3C8.25 7.32 8.22 7.29 8.22 7.24V2.35ZM9.63 9.73H8.29C8.24 9.73 8.21 9.7 8.21 9.65V8.39C8.21 8.34 8.24 8.31 8.29 8.31H9.63C9.68 8.31 9.71 8.34 9.71 8.39V9.65C9.71 9.7 9.68 9.73 9.63 9.73Z"/>
<path d="M4.41 3H3L0 6L3 9H4.41L1.41 6L4.41 3Z"/>
<path d="M13.5 3H14.91L17.91 6L14.91 9H13.5L16.5 6L13.5 3Z"/>
</svg>
