<svg width="100%" height="100%" viewBox="0 -3 18 18" fill="currentColor" xmlns="http://www.w3.org/2000/svg">
<path d="M5.25 10.5C2.35 10.5 0 8.14 0 5.25C0 2.36 2.35 0 5.25 0C8.15 0 10.5 2.35 10.5 5.25C10.5 8.15 8.15 10.5 5.25 10.5ZM5.25 1.5C3.18 1.5 1.5 3.18 1.5 5.25C1.5 7.32 3.18 9 5.25 9C7.32 9 9 7.32 9 5.25C9 3.18 7.32 1.5 5.25 1.5Z"/>
<path d="M11.2499 12C11.0599 12 10.8699 11.93 10.7199 11.78L8.21994 9.28C7.92994 8.99 7.92994 8.51 8.21994 8.22C8.50994 7.93 8.98994 7.93 9.27994 8.22L11.7799 10.72C12.0699 11.01 12.0699 11.49 11.7799 11.78C11.6299 11.93 11.4399 12 11.2499 12Z"/>
</svg>
