<svg width="100%" height="100%" viewBox="0 0 24 24" fill="currentColor" stroke="none" xmlns="http://www.w3.org/2000/svg">
<path d="M17.27 11.25C16.62 8.37 15.99 6 14.33 6C12.56 6 11.96 8.71 11.26 11.84C10.98 13.12 10.22 16.5 9.66 16.5C9.1 16.5 8.34 13.11 8.06 11.84C8.02 11.64 7.97 11.45 7.93 11.25H3V12.75H6.73C7.38 15.63 8.01 18 9.66 18C11.43 18 12.03 15.29 12.73 12.16C13.01 10.89 13.77 7.5 14.33 7.5C14.89 7.5 15.65 10.89 15.93 12.16C15.97 12.36 16.02 12.55 16.06 12.75H21V11.25H17.27Z"/>
</svg>
