<svg xmlns="http://www.w3.org/2000/svg" viewBox="0 0 50 50" width="100%" height="100%" fill="none" stroke="currentColor" stroke-width="0.5"><g transform="translate(5.865 13.85)"><g opacity="0.5"><path d="M36.89,10.4l-19.05,11c-1.67.97-4.6.85-6.53-.27L1.85,15.67c-1.93-1.12-2.14-2.81-.47-3.77L20.43.9c1.67-.97,4.6-.85,6.53.27l9.45,5.46c1.93,1.12,2.14,2.81.47,3.77Z" stroke-dasharray="2.48 2.48" stroke-linecap="round" stroke-linejoin="round"/></g><line x1="16.8" y1="16.41" x2="29.97" y2="8.8" stroke-linecap="round" stroke-linejoin="round"/><path d="M13.04,14.35c-.1.14-.31.23-.56.24-.61.02-1.21-.03-1.79-.15-1-.2-1.77-.63-2.12-1.21-.69-1.12.04-2.51.91-3.54,1.37-1.6,3.63-3.07,6.1-4.13.86-.37,1.79-.7,2.75-.98,1.8-.51,4.23-.94,6.18-.52.97.21,1.7.64,2.03,1.2.2.32.28.64.28.99,0,.16-.12.32-.4.38l-4.37.98c-.29.06-.64,0-.85-.13l-1.16-.67c-.14-.08-.33-.13-.52-.15-.23-.03-.44.01-.63.08-2.22.87-4.14,1.98-5.64,3.26-.13.11-.21.21-.16.34s.13.23.29.33l1.16.67c.2.11.32.32.22.48l-1.7,2.53h-.02Z" stroke-linecap="round" stroke-linejoin="round"/></g></svg>
