<svg xmlns="http://www.w3.org/2000/svg" viewBox="0 0 50 50" width="100%" height="100%" fill="none" stroke="currentColor" stroke-width="0.5"><g transform="translate(0 12.1)"><g opacity="0.5"><path d="M37.54,10.53c.34.33.56.69.66,1.05" stroke-linecap="round" stroke-linejoin="round"/><path d="M37.25,13.58s-.07.05-.11.07l-19.05,11c-1.67.97-4.6.85-6.53-.27l-9.45-5.46c-.72-.42-1.2-.91-1.44-1.42" stroke-dasharray="2.39 2.39" stroke-linecap="round" stroke-linejoin="round"/><path d="M.57,16.34c.11-.36.36-.69.75-.98" stroke-linecap="round" stroke-linejoin="round"/></g><path d="M37.14,10.65l-19.05,11c-1.67.97-4.6.85-6.53-.27L2.1,15.92c-1.93-1.12-2.14-2.81-.47-3.77L20.68,1.15c1.67-.97,4.6-.85,6.53.27l9.45,5.46c1.93,1.12,2.14,2.81.47,3.77Z" stroke-linejoin="round"/><path d="M.5,13.87l17.52-1.02c2.05-.11,3.67-1.05,3.87-2.23L23.71.15" stroke-miterlimit="10"/></g></svg>
