<svg xmlns="http://www.w3.org/2000/svg" viewBox="0 0 50 50" width="100%" height="100%" fill="none" stroke="currentColor" stroke-width="0.5"><g transform="translate(0 8.46)"><path d="M42.16,7.41L12.65,24.45c-1.15.66-3.16.58-4.49-.19h0c-1.33-.77-1.47-1.93-.32-2.59L37.35,4.63c1.15-.66,3.16-.58,4.49.19h0c1.33.77,1.47,1.93.32,2.59Z" stroke-linecap="round" stroke-linejoin="round"/><path fill="currentColor" stroke="none" fill-rule="evenodd" d="M8.76,21.83c1-.57,2.61-.57,3.61,0s1,1.51,0,2.08-2.61.57-3.61,0-1-1.51,0-2.08ZM10.93,21.92c.1,0,.2.02.27.07s.11.1.11.16v1.25c0,.06-.04.11-.11.16s-.17.06-.27.07h-1.08c-.21,0-.38-.1-.38-.22,0-.12.18-.22.38-.22h.7s0-1.03,0-1.03c0-.12.18-.22.38-.22Z"/><path d="M40.23,5.74c.44.26.44.67,0,.93s-1.16.26-1.6,0-.44-.67,0-.93,1.16-.26,1.6,0Z" stroke-linecap="round" stroke-linejoin="round"/><path d="M37.03,7.6c.44.26.44.67,0,.93s-1.16.26-1.6,0-.44-.67,0-.93,1.16-.26,1.6,0Z" stroke-linecap="round" stroke-linejoin="round"/><path d="M33.82,9.45c.44.26.44.67,0,.93s-1.16.26-1.6,0-.44-.67,0-.93,1.16-.26,1.6,0Z" stroke-linecap="round" stroke-linejoin="round"/><path d="M35.34,3.48L5.84,20.51c-1.15.66-3.16.58-4.49-.19h0c-1.33-.77-1.47-1.93-.32-2.59L30.53.7c1.15-.66,3.16-.58,4.49.19h0c1.33.77,1.47,1.93.32,2.59Z" stroke-linecap="round" stroke-linejoin="round"/><path fill="currentColor" stroke="none" fill-rule="evenodd" d="M1.95,17.9c1-.57,2.61-.57,3.61,0s1,1.51,0,2.08-2.61.57-3.61,0-1-1.51,0-2.08ZM4.11,17.99c.1,0,.2.02.27.07s.11.1.11.16v1.25c0,.06-.04.11-.11.16s-.17.06-.27.07h-1.08c-.21,0-.38-.1-.38-.22,0-.12.18-.22.38-.22h.7s0-1.03,0-1.03c0-.12.18-.22.38-.22Z"/><path d="M33.42,1.81c.44.26.44.67,0,.93s-1.16.26-1.6,0-.44-.67,0-.93,1.16-.26,1.6,0Z" stroke-linecap="round" stroke-linejoin="round"/><path d="M30.21,3.66c.44.26.44.67,0,.93s-1.16.26-1.6,0-.44-.67,0-.93,1.16-.26,1.6,0Z" stroke-linecap="round" stroke-linejoin="round"/><path d="M27,5.51c.44.26.44.67,0,.93s-1.16.26-1.6,0-.44-.67,0-.93,1.16-.26,1.6,0Z" stroke-linecap="round" stroke-linejoin="round"/><path d="M48.97,11.34l-29.51,17.04c-1.15.66-3.16.58-4.49-.19h0c-1.33-.77-1.47-1.93-.32-2.59l29.51-17.04c1.15-.66,3.16-.58,4.49.19h0c1.33.77,1.47,1.93.32,2.59Z" stroke-linecap="round" stroke-linejoin="round"/><path fill="currentColor" stroke="none" fill-rule="evenodd" d="M15.58,25.76c1-.57,2.61-.57,3.61,0s1,1.51,0,2.08-2.61.57-3.61,0-1-1.51,0-2.08ZM17.74,25.85c.1,0,.2.02.27.07s.11.1.11.16v1.25c0,.06-.04.11-.11.16s-.17.06-.27.07h-1.08c-.21,0-.38-.1-.38-.22,0-.12.18-.22.38-.22h.7s0-1.03,0-1.03c0-.12.18-.22.38-.22Z"/><path d="M47.05,9.68c.44.26.44.67,0,.93s-1.16.26-1.6,0-.44-.67,0-.93,1.16-.26,1.6,0Z" stroke-linecap="round" stroke-linejoin="round"/><path d="M43.84,11.53c.44.26.44.67,0,.93s-1.16.26-1.6,0-.44-.67,0-.93,1.16-.26,1.6,0Z" stroke-linecap="round" stroke-linejoin="round"/><path d="M40.63,13.38c.44.26.44.67,0,.93s-1.16.26-1.6,0-.44-.67,0-.93,1.16-.26,1.6,0Z" stroke-linecap="round" stroke-linejoin="round"/><g transform="translate(0 -2.5)"><path d="M42.75,9.66c.37.63.19,1.3-.59,1.75L12.65,28.45c-1.15.66-3.16.58-4.49-.19h0c-1-.58-1.33-1.37-.94-2.01" stroke-linecap="round" stroke-linejoin="round" stroke-dasharray="2.5" opacity="0.5"/><path d="M35.91,5.68c.4.64.23,1.33-.57,1.79L5.84,24.51c-1.15.66-3.16.58-4.49-.19h0c-1-.58-1.33-1.37-.94-2.01" stroke-linecap="round" stroke-linejoin="round" stroke-dasharray="2.5" opacity="0.5"/><path d="M49.42,13.39c.55.68.41,1.46-.45,1.96l-29.51,17.04c-1.15.66-3.16.58-4.49-.19h0c-1-.58-1.33-1.37-.94-2.01" stroke-linecap="round" stroke-linejoin="round" stroke-dasharray="2.5" opacity="0.5"/></g></g></svg>
