<svg xmlns="http://www.w3.org/2000/svg" viewBox="0 0 50 50" width="100%" height="100%" fill="none" stroke="currentColor" stroke-width="0.5"><g transform="translate(5.865 12.835)"><path d="M17.71,14.95l-5,2.88c-.29.17-.29.45,0,.62l4.1,2.37v-.81s4.83-2.79,4.83-2.79c.29-.17.29-.45,0-.62l-2.86-1.65c-.29-.17-.77-.17-1.07,0Z" stroke-linecap="round" stroke-linejoin="round"/><g opacity="0.5"><path d="M36.89,11.99l-19.05,11c-1.67.97-4.6.85-6.53-.27L1.85,17.26c-1.93-1.12-2.14-2.81-.47-3.77L20.43,2.49c1.67-.97,4.6-.85,6.53.27l9.45,5.46c1.93,1.12,2.14,2.81.47,3.77Z" stroke-dasharray="2.48 2.48" stroke-linecap="round" stroke-linejoin="round"/></g><path d="M17.92,16.73c-.18.1-.18.27,0,.37s.46.1.64,0,.18-.27,0-.37-.46-.1-.64,0Z" fill="currentColor" stroke="none"/><path d="M16.86,17.34c-.18.1-.18.27,0,.37s.46.1.64,0,.18-.27,0-.37-.46-.1-.64,0Z" fill="currentColor" stroke="none"/><path d="M15.79,17.96c-.18.1-.18.27,0,.37s.46.1.64,0,.18-.27,0-.37-.46-.1-.64,0Z" fill="currentColor" stroke="none"/><path d="M19.12,5.65l2.5-1.44c.29-.17.77-.17,1.07,0l2.86,1.65c.29.17.29.45,0,.62l-2.5,1.44-9.96,5.75-2.5,1.44c-.29.17-.77.17-1.07,0l-2.86-1.65c-.29-.17-.29-.45,0-.62l2.5-1.44,9.96-5.75Z" fill="var(--color-surface)" stroke-linecap="round" stroke-linejoin="round"/><path d="M25.2.66c.96.55.96,1.45,0,2s-2.51.55-3.46,0-.96-1.45,0-2,2.51-.55,3.46,0Z" fill="var(--color-surface)" stroke-miterlimit="10"/><path d="M16.54,21.66c.96.55.96,1.45,0,2s-2.51.55-3.46,0-.96-1.45,0-2,2.51-.55,3.46,0Z" fill="var(--color-surface)" stroke-miterlimit="10"/></g></svg>
