<svg xmlns="http://www.w3.org/2000/svg" viewBox="0 0 50 50" width="100%" height="100%" fill="none" stroke="currentColor" stroke-width="0.5"><g transform="translate(5.865 10.33)"><g opacity="0.5"><path d="M36.89,17.43l-19.05,11c-1.67.97-4.6.85-6.53-.27L1.85,22.7c-1.93-1.12-2.14-2.81-.47-3.77L20.43,7.93c1.67-.97,4.6-.85,6.53.27l9.45,5.46c1.93,1.12,2.14,2.81.47,3.77Z" stroke-dasharray="2.48 2.48" stroke-linecap="round" stroke-linejoin="round"/></g><path d="M18.38,17.49c-1.91-1.1-5.02-1.1-6.93,0s-1.91,2.9,0,4,5.02,1.1,6.93,0,1.91-2.9,0-4Z" fill="var(--color-surface)" stroke-linecap="round" stroke-linejoin="round"/><line x1="17.51" y1="20.99" x2="14.91" y2="19.49" stroke-linecap="round" stroke-linejoin="round"/><line x1="14.89" y1="18.05" x2="14.89" y2="19.46" stroke-linecap="round" stroke-linejoin="round"/><path d="M28.77,1.49c-2.87-1.66-7.52-1.66-10.39,0s-2.87,4.34,0,6,7.52,1.66,10.39,0,2.87-4.34,0-6Z" fill="var(--color-surface)" stroke-linecap="round" stroke-linejoin="round"/><g fill="currentColor" stroke="none"><path d="M27.9,2.27c-3.49,2.02-3.39,2.48-1.44,3.61.13.08.13.2,0,.28s-.35.08-.48,0c-1.95-1.12-2.76-1.18-6.25.83-.13.08-.35.08-.48,0s-.13-.2,0-.28c3.49-2.02,3.39-2.48,1.44-3.61-.13-.08-.13-.2,0-.28s.35-.08.48,0c1.95,1.13,2.76,1.18,6.25-.83.13-.08.35-.08.48,0s.13.2,0,.28ZM22.73,4.01c-.12.39-.12.58,0,.97.68.07,1,.07,1.69,0,.12-.39.12-.58,0-.97-.68-.07-1-.07-1.69,0Z"/><path d="M23.82,4.35c-.13-.08-.35-.08-.48,0s-.13.2,0,.28.35.08.48,0,.13-.2,0-.28Z"/></g><polyline points="18.38 17.49 22.06 15.37 13.4 10.37 18.38 7.49" stroke-linecap="round" stroke-linejoin="round"/></g></svg>
