<svg xmlns="http://www.w3.org/2000/svg" viewBox="0 0 50 50" width="100%" height="100%" fill="none" stroke="currentColor" stroke-width="0.5"><g transform="translate(0.145 10.44)"><path d="M48.24,16.06l-20.79,12c-1.43.83-3.94.72-5.59-.23L1.87,16.29c-1.65-.96-1.83-2.4-.4-3.23L22.26,1.06c1.43-.83,3.94-.72,5.59.23l19.99,11.54c1.65.96,1.83,2.4.4,3.23Z" stroke-dasharray="2.5" stroke-linecap="round" stroke-linejoin="round" opacity="0.5"/><path d="M28.14,6.08c.22.05.43.13.61.23.72.41.72,1.09,0,1.5l-15.59,9c-.72.41-1.88.41-2.6,0s-.72-1.09,0-1.5l.51-.29" stroke-miterlimit="10" opacity="0.5"/><path d="M30.74,10.58c.22.05.43.13.61.23.72.41.72,1.09,0,1.5l-10.39,6c-.72.41-1.88.41-2.6,0s-.72-1.09,0-1.5l.51-.29" stroke-miterlimit="10" opacity="0.5"/><path d="M33.34,15.08c.22.05.43.13.61.23.72.41.72,1.09,0,1.5l-5.2,3c-.72.41-1.88.41-2.6,0s-.72-1.09,0-1.5l.51-.29" stroke-miterlimit="10" opacity="0.5"/><path d="M28.75,5.81l-15.59,9c-.72.41-1.88.41-2.6,0s-.72-1.09,0-1.5l15.59-9c.72-.41,1.88-.41,2.6,0s.72,1.09,0,1.5Z" stroke-miterlimit="10"/><path d="M31.35,10.31l-10.39,6c-.72.41-1.88.41-2.6,0s-.72-1.09,0-1.5l10.39-6c.72-.41,1.88-.41,2.6,0s.72,1.09,0,1.5Z" stroke-miterlimit="10"/><path d="M33.95,14.81l-5.2,3c-.72.41-1.88.41-2.6,0s-.72-1.09,0-1.5l5.2-3c.72-.41,1.88-.41,2.6,0s.72,1.09,0,1.5Z" stroke-miterlimit="10"/></g></svg>
