<svg xmlns="http://www.w3.org/2000/svg" viewBox="0 0 50 50" width="100%" height="100%"><g transform="translate(0.395 10.69)"><path fill="none" stroke="currentColor" stroke-width="0.5" stroke-linecap="round" stroke-linejoin="round" stroke-dasharray="2.5" opacity="0.5" d="M47.99,15.81l-20.79,12c-1.43.83-3.94.72-5.59-.23L1.62,16.04c-1.65-.96-1.83-2.4-.4-3.23L22.01.81c1.43-.83,3.94-.72,5.59.23l19.99,11.54c1.65.96,1.83,2.4.4,3.23Z"/><path fill="currentColor" d="M21.34,8.09c1.87,0,3.61.42,4.92,1.17,1.22.7,1.89,1.61,1.89,2.55s-.67,1.85-1.89,2.55c-1.31.75-3.05,1.17-4.92,1.17s-3.61-.42-4.92-1.17c-1.22-.7-1.89-1.61-1.89-2.55s.67-1.85,1.89-2.55c1.31-.75,3.05-1.17,4.92-1.17M21.34,7.59c-1.87,0-3.74.41-5.17,1.24-2.85,1.65-2.85,4.32,0,5.97,1.43.82,3.3,1.24,5.17,1.24s3.74-.41,5.17-1.24c2.85-1.65,2.85-4.32,0-5.97-1.43-.82-3.3-1.24-5.17-1.24h0Z"/><line fill="none" stroke="currentColor" stroke-width="0.5" stroke-miterlimit="10" stroke-linecap="round" x1="34.03" y1="11.81" x2="28.53" y2="11.81"/><path fill="currentColor" opacity="0.5" d="M34.03,14.06h-5.4c-.04-.41-.16-.82-.39-1.2l-.43.26c.33.56.43,1.16.28,1.75-.21.8-.86,1.53-1.87,2.12-2.68,1.55-7.05,1.55-9.73,0-1.01-.58-1.66-1.31-1.87-2.11-.15-.58-.06-1.18.26-1.73l-.43-.25c-.39.67-.5,1.4-.31,2.11.25.93.97,1.76,2.1,2.41,1.41.81,3.26,1.22,5.12,1.22s3.71-.41,5.12-1.22c1.13-.66,1.86-1.49,2.11-2.42.04-.14.05-.28.07-.42h5.4c.14,0,.25-.11.25-.25s-.11-.25-.25-.25Z"/></g></svg>
