<svg xmlns="http://www.w3.org/2000/svg" viewBox="0 0 50 50" width="100%" height="100%" fill="none" stroke="currentColor" stroke-width="0.5"><g transform="translate(5.865 12.35)"><g opacity="0.5"><path d="M37.29,10.28c.34.33.56.69.66,1.05" stroke-linecap="round" stroke-linejoin="round"/><path d="M37,13.33s-.07.05-.11.07l-19.05,11c-1.67.97-4.6.85-6.53-.27L1.85,18.67c-.72-.42-1.2-.91-1.44-1.42" stroke-linecap="round" stroke-linejoin="round" stroke-dasharray="2.39 2.39"/><path d="M.32,16.09c.11-.36.36-.69.75-.98" stroke-linecap="round" stroke-linejoin="round"/></g><path d="M36.89,10.4l-19.05,11c-1.67.97-4.6.85-6.53-.27L1.85,15.67c-1.93-1.12-2.14-2.81-.47-3.77L20.43.9c1.67-.97,4.6-.85,6.53.27l9.45,5.46c1.93,1.12,2.14,2.81.47,3.77Z" stroke-linejoin="round"/><line x1="7.16" y1="13.74" x2="22.75" y2="4.74" stroke-miterlimit="10" stroke-linecap="round"/><line x1="10.62" y1="15.74" x2="26.21" y2="6.74" stroke-miterlimit="10" stroke-linecap="round"/><line x1="14.08" y1="17.74" x2="24.48" y2="11.74" stroke-miterlimit="10" stroke-linecap="round"/></g></svg>
