<svg width="100%" height="100%" viewBox="0 0 12 12" fill="currentColor" xmlns="http://www.w3.org/2000/svg">
<path fill-rule="evenodd" clip-rule="evenodd" d="M6 11C8.76142 11 11 8.76142 11 6C11 3.23858 8.76142 1 6 1C3.23858 1 1 3.23858 1 6C1 8.76142 3.23858 11 6 11ZM8.78 4.22C8.92 4.36 9 4.55 9 4.75C9 4.95 8.92 5.14 8.78 5.28L5.78 8.28C5.64 8.42 5.45 8.5 5.25 8.5C5.05 8.5 4.86 8.42 4.72 8.28L3.22 6.78C2.93 6.49 2.93 6.01 3.22 5.72C3.51 5.43 3.99 5.43 4.28 5.72L5.25 6.69L7.72 4.22C8.01 3.93 8.49 3.93 8.78 4.22Z"/>
</svg>
