<svg width="100%" height="100%" viewBox="0 0 12 12" fill="currentColor" xmlns="http://www.w3.org/2000/svg">
<path d="M1.8 7.51C1.61 7.02 1.5 6.5 1.5 5.95C1.5 3.72 3.13 1.88 5.25 1.52V0C2.29 0.37 0 2.89 0 5.95C0 6.78 0.17 7.56 0.47 8.27L1.8 7.5V7.51Z"/>
<path d="M6.75 0V3.05C8.04 3.39 9 4.55 9 5.94C9 7.59 7.65 8.94 6 8.94C5.19 8.94 4.42 8.6 3.86 8.04L1.22 9.56C1.22 9.56 1.26 9.62 1.29 9.65C1.59 10.03 1.93 10.37 2.31 10.66C2.34 10.69 2.38 10.71 2.41 10.74C2.58 10.87 2.77 10.99 2.95 11.1C2.97 11.11 2.99 11.13 3.01 11.14C3.43 11.38 3.89 11.57 4.37 11.71C4.41 11.72 4.46 11.73 4.5 11.74C4.69 11.79 4.88 11.83 5.08 11.86C5.14 11.86 5.19 11.88 5.25 11.89C5.49 11.92 5.73 11.94 5.98 11.94C9.29 11.94 11.98 9.25 11.98 5.94C12 2.89 9.71 0.38 6.75 0Z"/>
</svg>
