<svg width="100%" height="100%" viewBox="0 0 12 12" fill="currentColor" xmlns="http://www.w3.org/2000/svg">
<path fill-rule="evenodd" clip-rule="evenodd" d="M6 11C8.76142 11 11 8.76142 11 6C11 3.23858 8.76142 1 6 1C3.23858 1 1 3.23858 1 6C1 8.76142 3.23858 11 6 11ZM3.8 3.8C4.09 3.51 4.57 3.51 4.86 3.8L6 4.94L7.14 3.8C7.43 3.51 7.91 3.51 8.2 3.8C8.49 4.09 8.49 4.57 8.2 4.86L7.06 6L8.2 7.14C8.49 7.43 8.49 7.91 8.2 8.2C7.91 8.49 7.43 8.49 7.14 8.2L6 7.06L4.86 8.2C4.57 8.49 4.09 8.49 3.8 8.2C3.51 7.91 3.51 7.43 3.8 7.14L4.94 6L3.8 4.86C3.51 4.57 3.51 4.09 3.8 3.8Z"/>
</svg>
