<svg width="100%" height="100%" viewBox="0 0 12 12" fill="currentColor" xmlns="http://www.w3.org/2000/svg">
<path d="M6 8.75C4.48 8.75 3.25 7.52 3.25 6C3.25 4.48 4.48 3.25 6 3.25C7.52 3.25 8.75 4.48 8.75 6C8.75 7.52 7.52 8.75 6 8.75ZM6 4.75C5.31 4.75 4.75 5.31 4.75 6C4.75 6.69 5.31 7.25 6 7.25C6.69 7.25 7.25 6.69 7.25 6C7.25 5.31 6.69 4.75 6 4.75Z"/>
<path d="M3.14 12C3.68 10.96 4.75 10.25 6 10.25C7.25 10.25 8.32 10.96 8.86 12H10.48C9.85 10.12 8.09 8.75 5.99 8.75C3.89 8.75 2.14 10.12 1.5 12H3.14Z"/>
<path d="M1.5 12H0.75C0.34 12 0 11.66 0 11.25V1.5H1.5V12Z"/>
<path d="M12 10.5H10.5V1.5H1.5V0H11.25C11.66 0 12 0.34 12 0.75V10.5Z"/>
</svg>
