<svg xmlns="http://www.w3.org/2000/svg" width="100%" height="100%" viewBox="0 0 130 130" id="ai"><rect fill="#888888" x="60" y="10" width="10" height="10" rx="0" ry="0"/><rect fill="#888888" x="100" y="10" width="10" height="10" rx="0" ry="0"/><rect fill="#888888" x="60" y="20" width="10" height="10" rx="0" ry="0"/><rect fill="#888888" x="90" y="20" width="10" height="10" rx="0" ry="0"/><rect fill="#888888" x="110" y="20" width="10" height="10" rx="0" ry="0"/><rect fill="#888888" x="60" y="30" width="10" height="10" rx="0" ry="0"/><rect fill="#888888" x="100" y="30" width="10" height="10" rx="0" ry="0"/><rect fill="#888888" x="60" y="40" width="10" height="10" rx="0" ry="0"/><rect fill="#888888" x="50" y="50" width="10" height="10" rx="0" ry="0"/><rect fill="#888888" x="60" y="50" width="10" height="10" rx="0" ry="0"/><rect fill="#888888" x="70" y="50" width="10" height="10" rx="0" ry="0"/><rect fill="#888888" x="10" y="60" width="10" height="10" rx="0" ry="0"/><rect fill="#888888" x="20" y="60" width="10" height="10" rx="0" ry="0"/><rect fill="#888888" x="30" y="60" width="10" height="10" rx="0" ry="0"/><rect fill="#888888" x="40" y="60" width="10" height="10" rx="0" ry="0"/><rect fill="#888888" x="50" y="60" width="10" height="10" rx="0" ry="0"/><rect fill="#888888" x="70" y="60" width="10" height="10" rx="0" ry="0"/><rect fill="#888888" x="80" y="60" width="10" height="10" rx="0" ry="0"/><rect fill="#888888" x="90" y="60" width="10" height="10" rx="0" ry="0"/><rect fill="#888888" x="100" y="60" width="10" height="10" rx="0" ry="0"/><rect fill="#888888" x="110" y="60" width="10" height="10" rx="0" ry="0"/><rect fill="#888888" x="50" y="70" width="10" height="10" rx="0" ry="0"/><rect fill="#888888" x="60" y="70" width="10" height="10" rx="0" ry="0"/><rect fill="#888888" x="70" y="70" width="10" height="10" rx="0" ry="0"/><rect fill="#888888" x="60" y="80" width="10" height="10" rx="0" ry="0"/><rect fill="#888888" x="60" y="90" width="10" height="10" rx="0" ry="0"/><rect fill="#888888" x="60" y="100" width="10" height="10" rx="0" ry="0"/><rect fill="#888888" x="60" y="110" width="10" height="10" rx="0" ry="0"/></svg>