<svg
  xmlns="http://www.w3.org/2000/svg"
  viewBox="0 0 24 16"
  display="block"
>
  <path fill="var(--sub-1, var(--b4))" d="m15.578 0.043946-2.2441 0.87891v6.6758c0 0.2568 0.10697 0.50329 0.29297 0.67969l1.041 0.98242 7.0859 6.6973 2.2402-0.87891v-6.6758c0-0.2568-0.10497-0.50153-0.29297-0.67773z"/>
  <path fill="var(--sub-2, var(--b4))" d="m6.25 0.041992-2.2422 0.88086v6.6758c0 0.2568 0.10697 0.50329 0.29297 0.67969l1.0391 0.98242 7.084 6.6973 2.2441-0.87891v-6.6758c0-0.2568-0.10302-0.50153-0.29102-0.67773l-1.043-0.98438-7.082-6.6973z"/>
  <path fill="var(--sub-3, var(--b4))" d="m2.252 5.083-2.2422 0.87891v6.6758c0 0.2568 0.10697 0.50329 0.29297 0.67969l2.793 2.6406 2.2441-0.87891v-6.6758c0-0.2568-0.10302-0.50153-0.29102-0.67773z"/>
</svg>
