<svg width="100%" height="100%" viewBox="0 -3 18 18" fill="currentColor" stroke="none" xmlns="http://www.w3.org/2000/svg">
<path d="M13.8701 0V3.02832L16.8096 0.893555C17.0377 0.72785 17.3396 0.703997 17.5908 0.832031C17.8419 0.960136 18 1.21811 18 1.5V10.5C18 10.7819 17.8419 11.0399 17.5908 11.168C17.3396 11.296 17.0377 11.2721 16.8096 11.1064L13.8701 8.9707V10.5H13.8799V12H0.75C0.335786 12 0 11.6642 0 11.25V1.5H1.5V10.5H12.3701V1.5H1.5V0H13.8701ZM13.8701 4.88086V7.11816L16.5 9.02832V2.9707L13.8701 4.88086Z"/>
</svg>
