<svg width="100%" height="100%" viewBox="0 0 18 12" fill="currentColor" xmlns="http://www.w3.org/2000/svg">
<path d="M12.48 0C11.54 0 10.69 0.34 10.01 0.88C10.3 1.3 10.53 1.76 10.7 2.26C11.15 1.79 11.79 1.5 12.49 1.5C13.87 1.5 14.99 2.62 14.99 4C14.99 5.38 13.87 6.5 12.49 6.5C11.79 6.5 11.16 6.21 10.7 5.74C10.53 6.23 10.3 6.7 10.01 7.12C10.69 7.66 11.54 8 12.48 8C14.69 8 16.48 6.21 16.48 4C16.48 1.79 14.68 0 12.48 0Z"/>
<path d="M12.4801 9.5C14.2001 9.5 15.6701 10.53 16.3401 12H17.9501C17.2101 9.68 15.0301 8 12.4701 8C11.7201 8 11.0101 8.15 10.3601 8.41C10.7601 8.78 11.1301 9.19 11.4401 9.64C11.7701 9.56 12.1101 9.5 12.4701 9.5H12.4801Z"/>
<path d="M5.47998 8C3.26998 8 1.47998 6.21 1.47998 4C1.47998 1.79 3.26998 0 5.47998 0C7.68998 0 9.47998 1.79 9.47998 4C9.47998 6.21 7.68998 8 5.47998 8ZM5.47998 1.5C4.09998 1.5 2.97998 2.62 2.97998 4C2.97998 5.38 4.09998 6.5 5.47998 6.5C6.85998 6.5 7.97998 5.38 7.97998 4C7.97998 2.62 6.85998 1.5 5.47998 1.5Z"/>
<path d="M1.61 12C2.28 10.53 3.75 9.5 5.47 9.5C7.19 9.5 8.66 10.53 9.33 12H10.94C10.2 9.68 8.02 8 5.46 8C2.9 8 0.74 9.68 0 12H1.61Z"/>
</svg>
